#define bat_width 20
#define bat_height 20
static char bat_bits[] = {
  0x00, 0x00, 0x00, 0x00, 0x00, 0x00, 0x00, 0x00, 0x00, 0x00, 0x00, 0x00, 
  0x00, 0x00, 0x00, 0x00, 0x00, 0x00, 0xE0, 0x7F, 0x00, 0x20, 0x40, 0x00, 
  0xA0, 0xDF, 0x00, 0xA0, 0xDF, 0x00, 0xA0, 0xDF, 0x00, 0xA0, 0xDF, 0x00, 
  0x20, 0x40, 0x00, 0xE0, 0x7F, 0x00, 0x00, 0x00, 0x00, 0x00, 0x00, 0x00, 
  0x00, 0x00, 0x00, 0x00, 0x00, 0x00, 0x00, 0x00, 0x00, 0x00, 0x00, 0x00, 
  };
