#define mem_width 20
#define mem_height 20
static char mem_bits[] = {
  0x00, 0x00, 0x00, 0x00, 0x00, 0x00, 0x00, 0x00, 0x00, 0x00, 0x00, 0x00, 
  0x00, 0x00, 0x00, 0x00, 0x00, 0x00, 0x80, 0x2A, 0x00, 0x00, 0x00, 0x00, 
  0x80, 0x3F, 0x00, 0x80, 0x3F, 0x00, 0x80, 0x3F, 0x00, 0x80, 0x3F, 0x00, 
  0x00, 0x00, 0x00, 0x80, 0x2A, 0x00, 0x00, 0x00, 0x00, 0x00, 0x00, 0x00, 
  0x00, 0x00, 0x00, 0x00, 0x00, 0x00, 0x00, 0x00, 0x00, 0x00, 0x00, 0x00, 
  };
