#define ac_width 20
#define ac_height 20
static char ac_bits[] = {
  0x00, 0x00, 0x00, 0x00, 0x00, 0x00, 0x00, 0x00, 0x00, 0x00, 0x00, 0x00, 
  0x00, 0x00, 0x00, 0x00, 0x00, 0x00, 0x00, 0x0C, 0x00, 0x00, 0x0A, 0x00, 
  0x00, 0x39, 0x00, 0xC0, 0x09, 0x00, 0xC0, 0x09, 0x00, 0x00, 0x39, 0x00, 
  0x00, 0x0A, 0x00, 0x00, 0x0C, 0x00, 0x00, 0x00, 0x00, 0x00, 0x00, 0x00, 
  0x00, 0x00, 0x00, 0x00, 0x00, 0x00, 0x00, 0x00, 0x00, 0x00, 0x00, 0x00, 
  };
