#define clock_width 20
#define clock_height 20
static unsigned char clock_bits[] = {
 0x00, 0x00, 0x00, 0x00, 0x00, 0x00, 0x00, 0x00, 0x00, 0x00, 0x00, 0x00,
 0x00, 0x00, 0x00, 0x00, 0x00, 0x00, 0x00, 0x0f, 0x00, 0x80, 0x17, 0x00,
 0xc0, 0x3b, 0x00, 0xc0, 0x3d, 0x00, 0xc0, 0x21, 0x00, 0xc0, 0x3f, 0x00,
 0x80, 0x1f, 0x00, 0x00, 0x0f, 0x00, 0x00, 0x00, 0x00, 0x00, 0x00, 0x00,
 0x00, 0x00, 0x00, 0x00, 0x00, 0x00, 0x00, 0x00, 0x00, 0x00, 0x00, 0x00
 } ;
