#define cpu_width 20
#define cpu_height 20
static char cpu_bits[] = {
  0x00, 0x00, 0x00, 0x00, 0x00, 0x00, 0x00, 0x00, 0x00, 0x00, 0x00, 0x00, 
  0x00, 0x00, 0x00, 0x00, 0x00, 0x00, 0xC0, 0x36, 0x00, 0x40, 0x20, 0x00, 
  0x00, 0x0F, 0x00, 0x40, 0x2F, 0x00, 0x40, 0x2F, 0x00, 0x00, 0x0F, 0x00, 
  0x40, 0x20, 0x00, 0xC0, 0x36, 0x00, 0x00, 0x00, 0x00, 0x00, 0x00, 0x00, 
  0x00, 0x00, 0x00, 0x00, 0x00, 0x00, 0x00, 0x00, 0x00, 0x00, 0x00, 0x00, 
  };
